<svg width="18" height="18" viewBox="0 0 18 18" fill="none" xmlns="http://www.w3.org/2000/svg">
<path d="M5.61352 10.2356C6.78933 10.2356 7.73165 11.1871 7.73165 12.3713L7.73165 15.2141C7.73165 16.3899 6.78933 17.3489 5.61352 17.3489H2.79489C1.62742 17.3489 0.676758 16.3899 0.676758 15.2141L0.676758 12.3713C0.676758 11.1871 1.62742 10.2356 2.79489 10.2356L5.61352 10.2356ZM15.2369 10.2356C16.4044 10.2356 17.3551 11.1871 17.3551 12.3713V15.2141C17.3551 16.3899 16.4044 17.3489 15.2369 17.3489H12.4183C11.2425 17.3489 10.3002 16.3899 10.3002 15.2141L10.3002 12.3713C10.3002 11.1871 11.2425 10.2356 12.4183 10.2356L15.2369 10.2356ZM5.61352 0.670898C6.78933 0.670898 7.73165 1.6299 7.73165 2.80655V5.64935C7.73165 6.83351 6.78933 7.78417 5.61352 7.78417H2.79489C1.62742 7.78417 0.676758 6.83351 0.676758 5.64935L0.676758 2.80655C0.676758 1.6299 1.62742 0.670898 2.79489 0.670898L5.61352 0.670898ZM15.2369 0.670898C16.4044 0.670898 17.3551 1.6299 17.3551 2.80655V5.64935C17.3551 6.83351 16.4044 7.78417 15.2369 7.78417L12.4183 7.78417C11.2425 7.78417 10.3002 6.83351 10.3002 5.64935L10.3002 2.80655C10.3002 1.6299 11.2425 0.670898 12.4183 0.670898L15.2369 0.670898Z" fill="#A7A7A7"/>
</svg>
