<svg width="18" height="18" viewBox="0 0 18 18" fill="none" xmlns="http://www.w3.org/2000/svg">
<path d="M12.8999 0.717896C15.7341 0.717896 17.3341 2.3254 17.3424 5.15956L17.3424 12.9429C17.3424 15.7762 15.7341 17.3846 12.8999 17.3846L5.11745 17.3846C2.28328 17.3846 0.675781 15.7762 0.675781 12.9429L0.675781 5.15956C0.675781 2.3254 2.28328 0.717896 5.11745 0.717896L12.8999 0.717896ZM9.42578 4.15956C9.19162 4.0179 8.90828 4.0179 8.68412 4.15956C8.45828 4.3004 8.33412 4.55956 8.35828 4.8179L8.35828 13.3096C8.40078 13.6679 8.69995 13.9346 9.04995 13.9346C9.40912 13.9346 9.70828 13.6679 9.74162 13.3096L9.74162 4.8179C9.77495 4.55956 9.65078 4.3004 9.42578 4.15956ZM5.53411 6.8929C5.30911 6.75123 5.02495 6.75123 4.80078 6.8929C4.57495 7.03456 4.45078 7.29206 4.47578 7.55123L4.47578 13.3096C4.50828 13.6679 4.80828 13.9346 5.16661 13.9346C5.52578 13.9346 5.82495 13.6679 5.85828 13.3096L5.85828 7.55123C5.88411 7.29206 5.75828 7.03456 5.53411 6.8929ZM13.2499 9.9179C13.0258 9.77623 12.7424 9.77623 12.5091 9.9179C12.2833 10.0596 12.1591 10.3087 12.1924 10.5762L12.1924 13.3096C12.2258 13.6679 12.5249 13.9346 12.8841 13.9346C13.2341 13.9346 13.5333 13.6679 13.5758 13.3096L13.5758 10.5762C13.5999 10.3087 13.4758 10.0596 13.2499 9.9179Z" fill="#A7A7A7"/>
</svg>
