<svg width="18" height="18" viewBox="0 0 18 18" fill="none" xmlns="http://www.w3.org/2000/svg">
<path d="M9.02578 0.756592C13.7591 0.756592 17.3424 4.63741 17.3424 9.07741C17.3424 14.2268 13.1424 17.4233 9.00911 17.4233C7.64245 17.4233 6.12578 17.056 4.90911 16.3383C4.48411 16.0796 4.12578 15.8876 3.66745 16.0378L1.98411 16.5386C1.55911 16.6721 1.17578 16.3383 1.30078 15.8876L1.85911 14.0182C1.95078 13.7594 1.93411 13.484 1.80078 13.267C1.08411 11.9484 0.675781 10.5045 0.675781 9.10244C0.675781 4.71253 4.18411 0.756592 9.02578 0.756592ZM12.8341 8.04252C12.2424 8.04252 11.7674 8.51823 11.7674 9.11079C11.7674 9.695 12.2424 10.1791 12.8341 10.1791C13.4258 10.1791 13.9008 9.695 13.9008 9.11079C13.9008 8.51823 13.4258 8.04252 12.8341 8.04252ZM8.99245 8.04252C8.40911 8.03417 7.92578 8.51823 7.92578 9.10244C7.92578 9.695 8.40078 10.1707 8.99245 10.1791C9.58411 10.1791 10.0591 9.695 10.0591 9.11079C10.0591 8.51823 9.58411 8.04252 8.99245 8.04252ZM5.15078 8.04252C4.55911 8.04252 4.08411 8.51823 4.08411 9.11079C4.08411 9.695 4.56745 10.1791 5.15078 10.1791C5.74245 10.1707 6.21745 9.695 6.21745 9.11079C6.21745 8.51823 5.74245 8.04252 5.15078 8.04252Z" fill="#A7A7A7"/>
</svg>
