<svg width="40" height="40" viewBox="0 0 40 40" fill="none" xmlns="http://www.w3.org/2000/svg">
<rect width="40" height="40" rx="10" fill="#DFDBD8"/>
<path fill-rule="evenodd" clip-rule="evenodd" d="M30.15 9.24025C30.4743 9.56058 30.4743 10.0862 30.15 10.4065L29.5695 10.9815H29.5745C29.5911 10.9979 29.6068 11.0143 29.6218 11.0307L31.7574 13.1417C32.0809 13.462 32.0809 13.9876 31.7574 14.308C31.4331 14.6283 30.9081 14.6283 30.5838 14.308L28.449 12.1889L26.1492 14.4723L28.284 16.5831C28.6082 16.9035 28.6082 17.4209 28.284 17.7413C27.9605 18.0698 27.4347 18.0698 27.1113 17.7413L24.9764 15.6303C24.959 15.6139 24.9416 15.5975 24.9259 15.5811L20.9117 19.5564C22.1624 20.8788 22.9287 22.653 22.9287 24.6078C22.9287 28.6899 19.5872 32 15.4644 32C11.3415 32 8 28.6899 8 24.6078C8 20.5257 11.3415 17.2156 15.4644 17.2156C17.0136 17.2156 18.4534 17.6838 19.6461 18.4805L28.9774 9.24025C29.3008 8.91992 29.8266 8.91992 30.15 9.24025ZM9.65875 24.6078C9.65875 21.4291 12.258 18.8583 15.4644 18.8583C18.6707 18.8583 21.27 21.4291 21.27 24.6078C21.27 27.7864 18.6707 30.3573 15.4644 30.3573C12.258 30.3573 9.65875 27.7864 9.65875 24.6078Z" fill="white"/>
</svg>
