<svg width="16" height="18" viewBox="0 0 16 18" fill="none" xmlns="http://www.w3.org/2000/svg">
<path d="M11.0541 0.743776C11.4079 0.742945 11.6876 1.01781 11.6884 1.38429L11.6893 2.00898C13.9848 2.18889 15.5012 3.7531 15.5036 6.1519L15.5127 13.1734C15.516 15.7887 13.8729 17.3979 11.2392 17.4021L4.80594 17.4104C2.1887 17.4138 0.525048 15.7663 0.521757 13.1434L0.512701 6.20438C0.509415 3.78975 1.97231 2.2297 4.26784 2.01897L4.26702 1.39429C4.2662 1.0278 4.53771 0.752107 4.89973 0.752107C5.26175 0.751274 5.53327 1.02614 5.53409 1.39262L5.53491 1.97566L10.4222 1.969L10.4214 1.38596C10.4205 1.01947 10.6921 0.744611 11.0541 0.743776ZM11.3898 12.5704H11.3815C11.0031 12.5795 10.6995 12.8969 10.7077 13.28C10.7085 13.6631 11.0138 13.9788 11.3922 13.9871C11.7781 13.9863 12.0908 13.669 12.0899 13.2775C12.0899 12.886 11.7765 12.5704 11.3898 12.5704ZM4.61012 12.5712C4.23164 12.5878 3.93544 12.9052 3.93626 13.2883C3.95354 13.6715 4.2662 13.9713 4.64467 13.9538C5.01574 13.9372 5.31112 13.6198 5.29384 13.2367C5.28561 12.8619 4.98036 12.5704 4.61012 12.5712ZM7.99994 12.567C7.62147 12.5845 7.32609 12.901 7.32609 13.2842C7.34337 13.6673 7.65602 13.9663 8.0345 13.9497C8.40475 13.9322 8.70094 13.6157 8.68367 13.2317C8.67544 12.8577 8.37019 12.5662 7.99994 12.567ZM4.606 9.57269C4.22753 9.58935 3.93215 9.90669 3.93297 10.2898C3.94943 10.673 4.26291 10.9728 4.64138 10.9553C5.01163 10.9387 5.30701 10.6213 5.28973 10.2382C5.2815 9.86338 4.97707 9.57186 4.606 9.57269ZM7.99665 9.54354C7.61818 9.5602 7.32198 9.87754 7.3228 10.2607C7.33925 10.6438 7.65273 10.9428 8.03121 10.9262C8.40146 10.9087 8.69683 10.5922 8.68038 10.209C8.67132 9.83423 8.3669 9.54271 7.99665 9.54354ZM11.3865 9.5477C11.008 9.55603 10.7118 9.86421 10.7126 10.2474V10.2565C10.7209 10.6397 11.0335 10.9303 11.4128 10.922C11.7831 10.9129 12.0784 10.5955 12.0702 10.2124C12.0529 9.84589 11.7559 9.54687 11.3865 9.5477ZM10.4238 3.25169L5.53656 3.25835L5.53738 3.93218C5.53738 4.29117 5.26669 4.57436 4.90467 4.57436C4.54265 4.57519 4.27031 4.29283 4.27031 3.93385L4.26949 3.2925C2.66508 3.45326 1.77731 4.39612 1.77977 6.20271L1.7806 6.46175L14.2374 6.44509V6.15357C14.202 4.3628 13.3035 3.42327 11.6909 3.28334L11.6917 3.92469C11.6917 4.28284 11.4128 4.56686 11.059 4.56686C10.697 4.5677 10.4247 4.28451 10.4247 3.92635L10.4238 3.25169Z" fill="#A7A7A7"/>
</svg>
