<svg width="23" height="23" viewBox="0 0 23 23" fill="none" xmlns="http://www.w3.org/2000/svg">
<circle cx="11.5" cy="11.5" r="10.5" stroke="#844685" stroke-width="2"/>
<path d="M11.7701 6C12.9114 6 13.8277 6.31276 14.5191 6.93827C15.2214 7.55281 15.5726 8.40329 15.5726 9.48971C15.5726 10.5652 15.2269 11.3882 14.5356 11.9588C13.8442 12.5185 12.9279 12.7984 11.7866 12.7984L11.7208 14.0658H9.69606L9.61376 11.2675H10.3545C11.3092 11.2675 12.0445 11.1413 12.5603 10.8889C13.076 10.6365 13.3339 10.1756 13.3339 9.50617C13.3339 9.02332 13.1913 8.63923 12.9059 8.35391C12.6316 8.06859 12.253 7.92593 11.7701 7.92593C11.2653 7.92593 10.8703 8.0631 10.5849 8.33745C10.3106 8.6118 10.1734 8.9904 10.1734 9.47325H8.00059C7.98961 8.80384 8.13228 8.20576 8.42857 7.67901C8.72487 7.15226 9.15834 6.74074 9.72898 6.44444C10.3106 6.14815 10.991 6 11.7701 6ZM10.7002 18C10.2832 18 9.93749 17.8738 9.66314 17.6214C9.39977 17.358 9.26808 17.0343 9.26808 16.6502C9.26808 16.2661 9.39977 15.9479 9.66314 15.6955C9.93749 15.4321 10.2832 15.3004 10.7002 15.3004C11.1062 15.3004 11.4409 15.4321 11.7043 15.6955C11.9677 15.9479 12.0994 16.2661 12.0994 16.6502C12.0994 17.0343 11.9677 17.358 11.7043 17.6214C11.4409 17.8738 11.1062 18 10.7002 18Z" fill="#844685"/>
</svg>
