<svg width="16" height="17" viewBox="0 0 16 17" fill="none" xmlns="http://www.w3.org/2000/svg">
<path d="M12.9114 13.5377L12.929 13.5567L12.9484 13.5739L14.8657 15.2722L14.9293 15.3285C15.0721 15.5707 15.0487 15.9103 14.8591 16.1205C14.6729 16.3271 14.3955 16.3303 14.2065 16.1301L12.6265 14.1432L12.6265 14.1432L12.6241 14.1402L12.5743 14.0785C12.5289 14.0115 12.5003 13.9233 12.5003 13.827C12.5003 13.7094 12.5427 13.6057 12.6047 13.5364C12.6964 13.4376 12.82 13.438 12.9114 13.5377ZM6.94893 0.807964C8.50591 0.807964 10.011 1.49348 11.1295 2.73391C12.2494 3.97605 12.8863 5.67087 12.8863 7.44756C12.8863 11.1645 10.1806 14.0871 6.94893 14.0871C3.71729 14.0871 1.01158 11.1645 1.01158 7.44756C1.01158 3.73062 3.71729 0.807964 6.94893 0.807964Z" stroke="#AEAEAE" stroke-width="1.00069"/>
</svg>
