<svg width="18" height="18" viewBox="0 0 18 18" fill="none" xmlns="http://www.w3.org/2000/svg">
<path d="M12.8969 0.704902C14.0956 0.629979 15.2777 1.04622 16.1685 1.86204C16.9843 2.75278 17.4006 3.93489 17.334 5.14198L17.334 12.9173C17.4089 14.1244 16.9843 15.3065 16.1768 16.1972C15.2861 17.013 14.0956 17.4293 12.8969 17.3543L5.12151 17.3543C3.91441 17.4293 2.73229 17.013 1.84154 16.1972C1.02571 15.3065 0.609471 14.1244 0.684394 12.9173L0.684394 5.14198C0.609471 3.93489 1.02571 2.75278 1.84154 1.86204C2.73229 1.04622 3.91441 0.629979 5.12151 0.704902L12.8969 0.704902ZM12.6804 4.5093C12.1643 3.99317 11.3318 3.99317 10.8157 4.5093L10.2579 5.07538C10.1747 5.15863 10.1747 5.30015 10.2579 5.3834C10.2579 5.3834 10.2742 5.39963 10.3033 5.42855L10.5081 5.63219C10.6265 5.75004 10.7744 5.89721 10.9228 6.04521L11.4262 6.54838C11.5313 6.65389 11.601 6.7246 11.6065 6.732C11.6981 6.8319 11.7564 6.96509 11.7564 7.11494C11.7564 7.41463 11.5149 7.66437 11.2069 7.66437C11.0654 7.66437 10.9322 7.6061 10.8406 7.51452L9.4504 6.13262C9.3838 6.06602 9.26725 6.06602 9.20065 6.13262L5.22973 10.1035C4.95501 10.3782 4.79684 10.7445 4.78851 11.1358L4.73857 13.1087C4.73857 13.217 4.77186 13.3169 4.84679 13.3918C4.92171 13.4667 5.02161 13.5083 5.12983 13.5083H7.08616C7.48575 13.5083 7.86869 13.3502 8.16005 13.0671L13.7626 7.44793C14.2704 6.93179 14.2704 6.09932 13.7626 5.59151L12.6804 4.5093Z" fill="#A7A7A7"/>
</svg>
